<svg width="600" height="250" xmlns="http://www.w3.org/2000/svg">
  <!-- Background rectangle -->
  <rect width="100%" height="100%" fill="#ffffff" />

  <!-- Peacock Feather -->
  <g transform="translate(100, 50)">
    <path d="M10,30 Q15,15 20,30 T30,30 T40,30 T50,30" fill="none" stroke="#228B22" stroke-width="2"/>
    <path d="M30,30 C30,10 50,10 50,30 S30,50 30,30 Z" fill="none" stroke="#228B22" stroke-width="2"/>
    <path d="M30,15 Q35,10 40,15 T50,30" fill="none" stroke="#228B22" stroke-width="2"/>
    <circle cx="30" cy="15" r="8" fill="#006400" />
    <circle cx="30" cy="15" r="5" fill="#1E90FF" />
    <circle cx="30" cy="15" r="3" fill="#FFD700" />
  </g>

  <!-- Flute -->
  <g transform="translate(50, 100) scale(1.5)">
    <rect x="0" y="0" width="300" height="10" fill="#D2B48C" />
    <circle cx="20" cy="5" r="2" fill="#000000" />
    <circle cx="40" cy="5" r="2" fill="#000000" />
    <circle cx="60" cy="5" r="2" fill="#000000" />
    <circle cx="80" cy="5" r="2" fill="#000000" />
    <circle cx="100" cy="5" r="2" fill="#000000" />
    <circle cx="120" cy="5" r="2" fill="#000000" />
    <circle cx="140" cy="5" r="2" fill="#000000" />
    <circle cx="160" cy="5" r="2" fill="#000000" />
    <circle cx="180" cy="5" r="2" fill="#000000" />
    <circle cx="200" cy="5" r="2" fill="#000000" />
    <circle cx="220" cy="5" r="2" fill="#000000" />
    <circle cx="240" cy="5" r="2" fill="#000000" />
    <circle cx="260" cy="5" r="2" fill="#000000" />
    <circle cx="280" cy="5" r="2" fill="#000000" />
  </g>

  <!-- Text -->
  <text x="80%" y="150" font-family="Arial, Helvetica, sans-serif" font-size="40" fill="#000000" text-anchor="middle" alignment-baseline="middle">
    Krushna Enterprises
  </text>
</svg>
